# xmcd
#
# Track frame offsets: 
#        150
#        18745
#        37570
#        46565
#        60665
#        78800
#        97290
#        120452
#        134817
#        150675
#        175142
#        194240
#        214752
#        232227
#        254147
#        274750
#
# Disc length: 3887 seconds
#
# Revision: 6
# Processed by: cddbd v1.5.2PL0 Copyright (c) Steve Scherf et al.
# Submitted via: ExactAudioCopy v1.3
#
DISCID=e90f2d10
DTITLE=Poul Dissing and Benny Andersen - Troubadouren´s Bedste  - CD 2
DYEAR=1997
DGENRE=Folk
TTITLE0=Svantes Lykkelige Dag 
TTITLE1=Barndommens Land 
TTITLE2=Årstiderne
TTITLE3=Hymne Til Skønheden 
TTITLE4=Udsigt Med Kikkert
TTITLE5=Skvalderkål Blues
TTITLE6=Hilsen Til Forårssolen
TTITLE7=Månen Over Yangtzekiang
TTITLE8=Venne-sang
TTITLE9=Da Jeg Mødte Dig
TTITLE10=Hymne Til Natten
TTITLE11=Virus Blues
TTITLE12=Hymne Til Den Danske Sommer
TTITLE13=God Morgen, Rosalina
TTITLE14=Rosalina
TTITLE15=Go´ Nu Nat 
EXTD=YEAR: 1997
EXTT0=
EXTT1=
EXTT2=
EXTT3=
EXTT4=
EXTT5=
EXTT6=
EXTT7=
EXTT8=
EXTT9=
EXTT10=
EXTT11=
EXTT12=
EXTT13=
EXTT14=
EXTT15=
PLAYORDER=
